HIERARCHY
ROOT Hips
{
 OFFSET 0.000000 0.000000 0.000000
 CHANNELS 6 Xposition Yposition Zposition Yrotation Xrotation Zrotation
 JOINT Chest
 {
  OFFSET 0.000000 9.585900 0.002600
  CHANNELS 3 Yrotation Xrotation Zrotation
  JOINT Chest2
  {
   OFFSET 0.000000 9.601200 -0.005300
   CHANNELS 3 Yrotation Xrotation Zrotation
   JOINT Chest3
   {
    OFFSET 0.000000 9.561800 0.000000
    CHANNELS 3 Yrotation Xrotation Zrotation
    JOINT Chest4
    {
     OFFSET 0.000000 9.552100 0.000000
     CHANNELS 3 Yrotation Xrotation Zrotation
     JOINT Neck
     {
      OFFSET 0.000000 14.453000 0.000000
      CHANNELS 3 Yrotation Xrotation Zrotation
      JOINT Head
      {
       OFFSET 0.000000 8.936500 -0.011300
       CHANNELS 3 Yrotation Xrotation Zrotation
       End Site
       {
        OFFSET 0.000000 17.073600 -0.006000
       }
      }
     }
     JOINT RightCollar
     {
      OFFSET -2.921100 9.558500 0.000000
      CHANNELS 3 Yrotation Xrotation Zrotation
      JOINT RightShoulder
      {
       OFFSET -13.519700 0.000000 0.000000
       CHANNELS 3 Yrotation Xrotation Zrotation
       JOINT RightElbow
       {
        OFFSET 0.000000 -29.696600 0.000000
        CHANNELS 3 Yrotation Xrotation Zrotation
        JOINT RightWrist
        {
         OFFSET 0.000000 -24.004700 0.000000
         CHANNELS 3 Yrotation Xrotation Zrotation
         End Site
         {
          OFFSET 0.000000 -17.728500 0.000000
         }
        }
       }
      }
     }
     JOINT LeftCollar
     {
      OFFSET 2.921100 9.558500 0.000000
      CHANNELS 3 Yrotation Xrotation Zrotation
      JOINT LeftShoulder
      {
       OFFSET 13.519700 0.000000 0.000000
       CHANNELS 3 Yrotation Xrotation Zrotation
       JOINT LeftElbow
       {
        OFFSET 0.000000 -29.696600 0.000000
        CHANNELS 3 Yrotation Xrotation Zrotation
        JOINT LeftWrist
        {
         OFFSET 0.000000 -24.004700 0.000000
         CHANNELS 3 Yrotation Xrotation Zrotation
         End Site
         {
          OFFSET 0.000000 -17.728500 0.000000
         }
        }
       }
      }
     }
    }
   }
  }
 }
 JOINT RightHip
 {
  OFFSET -7.771700 -0.012900 -0.001300
  CHANNELS 3 Yrotation Xrotation Zrotation
  JOINT RightKnee
  {
   OFFSET 0.000000 -40.869800 0.001200
   CHANNELS 3 Yrotation Xrotation Zrotation
   JOINT RightAnkle
   {
    OFFSET 0.000000 -39.717900 0.002100
    CHANNELS 3 Yrotation Xrotation Zrotation
    JOINT RightToe
    {
     OFFSET 0.000000 -4.965400 11.033500
     CHANNELS 3 Yrotation Xrotation Zrotation
     End Site
     {
      OFFSET 0.000000 -1.423100 5.872300
     }
    }
   }
  }
 }
 JOINT LeftHip
 {
  OFFSET 7.771700 -0.012900 -0.001300
  CHANNELS 3 Yrotation Xrotation Zrotation
  JOINT LeftKnee
  {
   OFFSET 0.000000 -40.869800 0.001200
   CHANNELS 3 Yrotation Xrotation Zrotation
   JOINT LeftAnkle
   {
    OFFSET 0.000000 -39.717900 0.002100
    CHANNELS 3 Yrotation Xrotation Zrotation
    JOINT LeftToe
    {
     OFFSET 0.000000 -4.965400 11.033500
     CHANNELS 3 Yrotation Xrotation Zrotation
     End Site
     {
      OFFSET 0.000000 -1.423100 5.872300
     }
    }
   }
  }
 }
}
MOTION
Frames: 5
Frame Time: 0.008333
0.000000 85.388000 0.000000 0.000000 -5.767877 0.000000 0.000000 11.653817 0.000000 0.000000 -5.885947 0.000000 0.000000 -0.000000 0.000000 0.000000 -0.000000 0.000000 0.000000 12.528835 0.000000 0.000000 0.711642 0.000000 0.000000 -0.000000 0.000000 0.000000 0.000000 -90.000000 0.000000 -2.309062 0.000000 0.000000 2.309062 0.000000 0.000000 -0.000000 0.000000 0.000000 -0.000000 90.000000 0.000000 -2.309062 0.000000 0.000000 2.309062 0.000000 0.000000 8.520406 0.000000 0.000000 1.905762 0.000000 -0.000000 -4.658285 0.000000 0.000000 -0.000000 0.000000 0.000000 8.520406 0.000000 0.000000 1.905762 0.000000 -0.000000 -4.658285 0.000000 0.000000 -0.000000 0.000000
-88.698612 62.131441 18.240999 173.469831 -49.331141 -1.272987 5.000370 26.128124 1.018294 0.739092 4.351417 0.133860 1.182199 6.916533 0.239646 3.875606 21.308586 1.253907 6.809125 15.807533 2.771459 11.678446 -6.403477 2.713086 3.433305 7.633727 4.457712 -13.831229 -13.276374 -10.699806 -118.595768 -45.975164 154.102900 -8.693448 -10.542664 4.586119 -8.302624 3.476362 0.216206 5.832404 -14.380396 14.734540 112.523587 -49.646060 -146.938640 15.023706 -13.475523 1.633920 2.825780 -17.879873 -2.904013 -1.883424 60.378414 -5.073653 2.582658 -5.413846 10.010697 0.251241 -0.591257 0.091424 -4.422320 -14.134538 4.858887 30.101450 75.570024 32.191505 1.603783 -11.191213 -6.006649 0.308409 0.757584 0.126558
-88.697326 62.130004 18.232280 173.478509 -49.317842 -1.271679 4.991079 26.119597 1.037284 0.737814 4.342559 0.137423 1.178760 6.913148 0.226690 3.885206 21.280224 1.291328 6.756743 15.739350 2.734868 11.596431 -6.529340 2.658925 3.418740 7.603942 4.439200 -13.722386 -13.410244 -10.835252 -119.765106 -46.169775 154.865646 -8.163369 -10.129561 5.137802 -8.397853 3.380007 0.181977 5.683314 -14.439471 14.865835 113.874122 -49.945630 -147.786921 14.630942 -13.110248 1.361921 2.825175 -17.902680 -2.915578 -1.894210 60.409725 -5.079675 2.587211 -5.416500 10.010376 0.248827 -0.589480 0.096455 -4.425951 -14.150835 4.862078 30.104986 75.590854 32.193287 1.586566 -11.202497 -6.007167 0.318283 0.752454 0.131557
-88.687574 62.128448 18.223487 173.450998 -49.303847 -1.292329 5.028476 26.104766 1.109482 0.736443 4.334084 0.140979 1.176093 6.909805 0.214472 3.890058 21.261535 1.313921 6.707720 15.666135 2.712422 11.508608 -6.646688 2.608861 3.423759 7.401510 4.494242 -13.588268 -13.410233 -11.077531 -120.741049 -46.348089 155.491035 -7.638048 -9.749385 5.664767 -8.489774 3.276131 0.157987 5.516880 -14.486535 15.002552 115.090057 -50.222366 -148.529162 14.251444 -12.756136 1.120570 2.830076 -17.924581 -2.872673 -1.896893 60.426880 -5.081068 2.617859 -5.426365 10.022161 0.217288 -0.585434 0.083274 -4.417108 -14.163636 4.915339 30.132150 75.614999 32.220939 1.612017 -11.202138 -6.001788 0.283110 0.734315 0.121021
-88.684047 62.125210 18.214430 173.447671 -49.277976 -1.293886 5.029059 26.081392 1.137114 0.734704 4.326355 0.144619 1.177074 6.895682 0.220405 3.878028 21.274083 1.290894 6.667538 15.578279 2.716366 11.416704 -6.755238 2.561666 3.434253 7.251573 4.546740 -13.422510 -13.477769 -11.282403 -121.538274 -46.527051 155.996861 -7.154585 -9.400328 6.152182 -8.574170 3.157436 0.158138 5.335708 -14.521718 15.141682 116.171286 -50.480814 -149.165389 13.893036 -12.407237 0.901124 2.831612 -17.956310 -2.868974 -1.900800 60.445931 -5.085270 2.621935 -5.429015 10.025969 0.213647 -0.591058 0.080508 -4.417423 -14.189344 4.931506 30.150010 75.629120 32.236761 1.601646 -11.218179 -6.005357 0.330673 0.742590 0.128459
